# xmcd
#
# Track frame offsets: 
#        150
#        18727
#        33445
#        55422
#        71892
#        87337
#        98842
#        121232
#        139112
#        152195
#        166650
#        180687
#        197697
#
# Disc length: 2790 seconds
#
# Revision: 7
# Processed by: cddbd v1.5.2PL0 Copyright (c) Steve Scherf et al.
# Submitted via: ExactAudioCopy v1.0b2
#
DISCID=b20ae40d
DTITLE=Keb' Mo' - Just Like You
DYEAR=1996
DGENRE=Blues
TTITLE0=That's Not Love
TTITLE1=Perpetual Blues Machine
TTITLE2=More Than One Way Home
TTITLE3=I'm On Your Side
TTITLE4=Just Like You
TTITLE5=You Can Love Yourself
TTITLE6=Dangerous Mood
TTITLE7=The Action
TTITLE8=Hand It Over
TTITLE9=Standin' At The Station
TTITLE10=Momma, Where's My Daddy
TTITLE11=Last Fair Deal Gone Down
TTITLE12=Lullaby Baby Blues
EXTD=(C) 1996 Sony Music Entertainment\nEK 67316\nProduced by John Por
EXTD=ter
EXTT0=
EXTT1=
EXTT2=
EXTT3=
EXTT4=
EXTT5=
EXTT6=
EXTT7=
EXTT8=
EXTT9=
EXTT10=
EXTT11=
EXTT12=
PLAYORDER=
